<svg width="243" height="201" viewBox="0 0 243 201" fill="none" xmlns="http://www.w3.org/2000/svg">
<path d="M112.766 196.88C166.029 196.88 209.206 153.702 209.206 100.44C209.206 47.1775 166.029 4 112.766 4C59.5042 4 16.3267 47.1775 16.3267 100.44C16.3267 153.702 59.5042 196.88 112.766 196.88Z" fill="#1895DE"/>
<path d="M112.766 172.03C152.304 172.03 184.356 139.978 184.356 100.44C184.356 60.9016 152.304 28.8496 112.766 28.8496C73.2281 28.8496 41.176 60.9016 41.176 100.44C41.176 139.978 73.2281 172.03 112.766 172.03Z" fill="#28B1D5"/>
<path d="M112.766 196.88C166.029 196.88 209.206 153.702 209.206 100.44C209.206 47.1775 166.029 4 112.766 4C59.5042 4 16.3267 47.1775 16.3267 100.44C16.3267 153.702 59.5042 196.88 112.766 196.88Z" stroke="#020129" stroke-width="8" stroke-linecap="round" stroke-linejoin="round"/>
<path d="M16.3195 49.6746H166.201V74.3136H16.3195C14.7017 74.3136 13.0997 73.995 11.605 73.3758C10.1104 72.7567 8.75228 71.8493 7.6083 70.7053C6.46433 69.5613 5.55688 68.2032 4.93777 66.7086C4.31865 65.2139 4 63.6119 4 61.9941C4 60.3763 4.31865 58.7743 4.93777 57.2796C5.55688 55.7849 6.46433 54.4268 7.6083 53.2829C8.75228 52.1389 10.1104 51.2314 11.605 50.6123C13.0997 49.9932 14.7017 49.6746 16.3195 49.6746Z" fill="#D7182E"/>
<path opacity="0.93" d="M4.5591 58.3171C4.18749 59.5074 3.99897 60.7473 4 61.9942C4 63.6121 4.31866 65.214 4.93777 66.7087C5.55689 68.2034 6.46434 69.5615 7.60831 70.7055C8.75228 71.8494 10.1104 72.7569 11.605 73.376C13.0997 73.9951 14.7017 74.3138 16.3195 74.3138H166.201V66.9596H16.3195C13.6944 66.9594 11.1378 66.1209 9.02245 64.5664C6.90705 63.0119 5.34333 60.8224 4.5591 58.3171Z" fill="#890C27"/>
<path opacity="0.67" d="M16.3195 49.6746C14.7017 49.6746 13.0997 49.9932 11.605 50.6123C10.1104 51.2314 8.75228 52.1389 7.6083 53.2829C6.46433 54.4268 5.55688 55.7849 4.93777 57.2796C4.31865 58.7743 4 60.3763 4 61.9941C4.0023 62.9025 4.10502 63.8079 4.30626 64.6938C4.91855 61.9643 6.44175 59.5247 8.6252 57.7762C10.8087 56.0278 13.5223 55.0747 16.3195 55.0739H166.201V49.6746H16.3195Z" fill="#FFA663"/>
<path d="M16.3195 49.6746H166.201V74.3136H16.3195C14.7017 74.3136 13.0997 73.995 11.605 73.3758C10.1104 72.7567 8.75228 71.8493 7.6083 70.7053C6.46433 69.5613 5.55688 68.2032 4.93777 66.7086C4.31865 65.2139 4 63.6119 4 61.9941C4 60.3763 4.31865 58.7743 4.93777 57.2796C5.55688 55.7849 6.46433 54.4268 7.6083 53.2829C8.75228 52.1389 10.1104 51.2314 11.605 50.6123C13.0997 49.9932 14.7017 49.6746 16.3195 49.6746Z" stroke="#020129" stroke-width="8" stroke-linecap="round" stroke-linejoin="round"/>
<path d="M175.757 45.9558H166.199V78.0325H175.757V45.9558Z" fill="#FFDC7B"/>
<path opacity="0.43" d="M175.757 45.9004H166.199V53.5608H175.757V45.9004Z" fill="white"/>
<path d="M175.757 68.2837H166.199V78.088H175.757V68.2837Z" fill="#F48D31"/>
<path d="M175.757 45.9558H166.199V78.0325H175.757V45.9558Z" stroke="#020129" stroke-width="8" stroke-linecap="round" stroke-linejoin="round"/>
<path d="M40.5996 45.9558H31.0422V78.0325H40.5996V45.9558Z" fill="#FFDC7B"/>
<path opacity="0.43" d="M40.5996 45.9558H31.0422V53.6163H40.5996V45.9558Z" fill="white"/>
<path d="M40.5996 68.3396H31.0422V78.1439H40.5996V68.3396Z" fill="#F48D31"/>
<path d="M40.5996 45.9558H31.0422V78.0325H40.5996V45.9558Z" stroke="#020129" stroke-width="8" stroke-linecap="round" stroke-linejoin="round"/>
<path d="M175.793 69.4032L195.425 82.7862L238.752 61.9943L195.278 41.2024L175.793 54.586V69.4032Z" fill="#F48D31"/>
<path d="M175.793 69.4031L195.424 82.786L238.752 61.9941H175.793V69.4031Z" fill="#EE6E31"/>
<path d="M175.793 65.1656L196.174 72.0636L238.752 61.9941L195.425 82.786L175.793 69.4031V65.1656Z" fill="#E65331"/>
<path d="M175.639 58.7987L196.02 47.4983L232.981 61.9942L195.271 41.1782L175.639 54.5612V58.7987Z" fill="#FFE085"/>
<path d="M175.793 69.4032L195.425 82.7862L238.752 61.9943L195.278 41.2024L175.793 54.586V69.4032Z" stroke="#020129" stroke-width="8" stroke-linecap="round" stroke-linejoin="round"/>
<path d="M239 61.9941H202.509" stroke="#020129" stroke-width="8" stroke-linecap="round" stroke-linejoin="round"/>
<path d="M203.06 67.3936C206.042 67.3936 208.459 64.9763 208.459 61.9943C208.459 59.0123 206.042 56.595 203.06 56.595C200.078 56.595 197.661 59.0123 197.661 61.9943C197.661 64.9763 200.078 67.3936 203.06 67.3936Z" fill="#020129"/>
<path d="M137.202 105.258H88.3308V190.441H137.202V105.258Z" fill="#FFA183"/>
<path d="M137.202 105.258H88.3308V190.441H137.202V105.258Z" fill="#F9A991"/>
<g style="mix-blend-mode:multiply" opacity="0.58">
<path d="M88.3325 128.308C93.1356 130.78 98.4604 132.069 103.863 132.065H121.674C127.076 132.069 132.401 130.78 137.204 128.308V105.258H88.3325V128.308Z" fill="#FFA183"/>
</g>
<path d="M137.202 105.258H88.3308V190.441H137.202V105.258Z" stroke="#020129" stroke-width="8" stroke-linecap="round" stroke-linejoin="round"/>
<path d="M74.9744 54.47H150.562V97.9637C150.562 105.625 147.519 112.973 142.101 118.391C136.684 123.808 129.336 126.852 121.674 126.852H103.861C96.1994 126.851 88.852 123.808 83.4348 118.39C78.0177 112.973 74.9744 105.625 74.9744 97.9637V54.47Z" fill="#F9A991"/>
<path d="M121.671 117.625H103.861C96.1993 117.625 88.8518 114.581 83.4346 109.163C78.0174 103.746 74.9742 96.398 74.9744 88.7366V97.9635C74.9743 101.757 75.7214 105.514 77.1732 109.019C78.6249 112.524 80.7528 115.708 83.4354 118.391C86.1179 121.073 89.3025 123.201 92.8075 124.653C96.3124 126.105 100.069 126.852 103.863 126.852H121.673C125.467 126.852 129.224 126.105 132.729 124.653C136.234 123.201 139.418 121.073 142.101 118.391C144.783 115.708 146.911 112.524 148.363 109.019C149.815 105.514 150.562 101.757 150.562 97.9635V88.7366C150.562 92.5305 149.815 96.2872 148.363 99.7923C146.911 103.297 144.783 106.482 142.1 109.165C139.417 111.847 136.233 113.975 132.727 115.427C129.222 116.879 125.465 117.626 121.671 117.625Z" fill="#F98568"/>
<path d="M74.9744 54.47H150.562V97.9637C150.562 105.625 147.519 112.973 142.101 118.391C136.684 123.808 129.336 126.852 121.674 126.852H103.861C96.1994 126.851 88.852 123.808 83.4348 118.39C78.0177 112.973 74.9744 105.625 74.9744 97.9637V54.47Z" stroke="#020129" stroke-width="8" stroke-linecap="round" stroke-linejoin="round"/>
<path d="M93.8694 49.4773C93.8694 44.259 89.6392 40.0288 84.4209 40.0288C79.2026 40.0288 74.9724 44.259 74.9724 49.4773V70.8954C74.9724 76.1137 79.2026 80.3439 84.4209 80.3439C89.6392 80.3439 93.8694 76.1137 93.8694 70.8954V49.4773Z" fill="#F9A991"/>
<path d="M112.766 45.1577C112.766 39.9395 108.536 35.7092 103.318 35.7092C98.0996 35.7092 93.8694 39.9395 93.8694 45.1577V70.8244C93.8694 76.0426 98.0996 80.2729 103.318 80.2729C108.536 80.2729 112.766 76.0426 112.766 70.8244V45.1577Z" fill="#F9A991"/>
<path d="M131.663 44.3699C131.663 39.1516 127.433 34.9214 122.215 34.9214C116.997 34.9214 112.766 39.1516 112.766 44.3699V70.8243C112.766 76.0426 116.997 80.2728 122.215 80.2728C127.433 80.2728 131.663 76.0426 131.663 70.8243V44.3699Z" fill="#F9A991"/>
<path d="M150.56 50.1973C150.56 44.979 146.33 40.7488 141.112 40.7488C135.894 40.7488 131.663 44.979 131.663 50.1973V69.4533C131.663 74.6716 135.894 78.9018 141.112 78.9018C146.33 78.9018 150.56 74.6716 150.56 69.4533V50.1973Z" fill="#F9A991"/>
<path d="M86.7934 70.5956H82.0477C81.1184 70.5953 80.1982 70.412 79.3398 70.0561C78.4814 69.7001 77.7014 69.1786 77.0446 68.5212C76.3877 67.8638 75.8668 67.0834 75.5116 66.2247C75.1564 65.366 74.9739 64.4457 74.9744 63.5164V70.8953C74.9744 73.4012 75.9698 75.8045 77.7418 77.5764C79.5137 79.3483 81.917 80.3438 84.4229 80.3438C86.9288 80.3438 89.332 79.3483 91.1039 77.5764C92.8759 75.8045 93.8713 73.4012 93.8713 70.8953V63.5164C93.8718 64.446 93.689 65.3667 93.3335 66.2257C92.9779 67.0847 92.4566 67.8652 91.7993 68.5226C91.142 69.18 90.3616 69.7015 89.5026 70.0572C88.6437 70.4129 87.7231 70.5958 86.7934 70.5956Z" fill="#F98568"/>
<path d="M105.69 70.5213H100.945C99.0685 70.5208 97.2694 69.7752 95.9429 68.4483C94.6165 67.1215 93.8713 65.3222 93.8713 63.446V70.8243C93.8713 73.3302 94.8668 75.7335 96.6387 77.5054C98.4107 79.2774 100.814 80.2728 103.32 80.2728C105.826 80.2728 108.229 79.2774 110.001 77.5054C111.773 75.7335 112.768 73.3302 112.768 70.8243V63.446C112.768 64.3754 112.585 65.2957 112.229 66.1542C111.874 67.0128 111.352 67.7929 110.695 68.45C110.038 69.107 109.258 69.6281 108.399 69.9835C107.54 70.3389 106.62 70.5217 105.69 70.5213Z" fill="#F98568"/>
<g style="mix-blend-mode:multiply" opacity="0.58">
<path d="M124.587 70.5213H119.842C117.965 70.5208 116.166 69.7752 114.84 68.4483C113.513 67.1215 112.768 65.3222 112.768 63.446V70.8243C112.768 73.3302 113.764 75.7335 115.536 77.5054C117.308 79.2774 119.711 80.2728 122.217 80.2728C124.723 80.2728 127.126 79.2774 128.898 77.5054C130.67 75.7335 131.665 73.3302 131.665 70.8243V63.446C131.665 64.3754 131.482 65.2957 131.126 66.1542C130.771 67.0128 130.249 67.7929 129.592 68.45C128.935 69.107 128.155 69.6281 127.296 69.9835C126.437 70.3389 125.517 70.5217 124.587 70.5213Z" fill="#FFA183"/>
</g>
<g style="mix-blend-mode:multiply" opacity="0.58">
<path d="M143.484 69.1504H138.739C136.862 69.1499 135.063 68.4041 133.737 67.0772C132.41 65.7502 131.665 63.9507 131.665 62.0745V69.4528C131.665 71.9586 132.661 74.3619 134.433 76.1338C136.205 77.9058 138.608 78.9013 141.114 78.9013C143.62 78.9013 146.023 77.9058 147.795 76.1338C149.567 74.3619 150.562 71.9586 150.562 69.4528V62.0745C150.562 63.0039 150.379 63.9241 150.023 64.7828C149.668 65.6414 149.146 66.4215 148.489 67.0786C147.832 67.7357 147.052 68.2569 146.193 68.6123C145.334 68.9678 144.414 69.1507 143.484 69.1504Z" fill="#FFA183"/>
</g>
<path opacity="0.43" d="M84.4229 40.0288C81.917 40.0288 79.5137 41.0243 77.7418 42.7962C75.9698 44.5681 74.9744 46.9714 74.9744 49.4773V55.7329C74.9744 54.4921 75.2188 53.2634 75.6936 52.1171C76.1684 50.9707 76.8644 49.9291 77.7418 49.0518C78.6191 48.1744 79.6607 47.4784 80.8071 47.0036C81.9534 46.5288 83.1821 46.2844 84.4229 46.2844C85.6636 46.2844 86.8923 46.5288 88.0386 47.0036C89.185 47.4784 90.2266 48.1744 91.1039 49.0518C91.9813 49.9291 92.6773 50.9707 93.1521 52.1171C93.6269 53.2634 93.8713 54.4921 93.8713 55.7329V49.4773C93.8713 46.9714 92.8759 44.5681 91.1039 42.7962C89.332 41.0243 86.9288 40.0288 84.4229 40.0288Z" fill="white"/>
<path opacity="0.43" d="M103.32 35.7092C100.814 35.7092 98.4107 36.7047 96.6387 38.4766C94.8668 40.2486 93.8713 42.6518 93.8713 45.1577V51.4133C93.8713 48.9074 94.8668 46.5041 96.6387 44.7322C98.4107 42.9602 100.814 41.9648 103.32 41.9648C105.826 41.9648 108.229 42.9602 110.001 44.7322C111.773 46.5041 112.768 48.9074 112.768 51.4133V45.1577C112.768 42.6518 111.773 40.2486 110.001 38.4766C108.229 36.7047 105.826 35.7092 103.32 35.7092Z" fill="white"/>
<path opacity="0.43" d="M122.217 34.9214C119.711 34.9214 117.308 35.9168 115.536 37.6888C113.764 39.4607 112.768 41.864 112.768 44.3699V50.6254C112.768 48.1195 113.764 45.7163 115.536 43.9443C117.308 42.1724 119.711 41.1769 122.217 41.1769C124.723 41.1769 127.126 42.1724 128.898 43.9443C130.67 45.7163 131.665 48.1195 131.665 50.6254V44.3699C131.665 41.864 130.67 39.4607 128.898 37.6888C127.126 35.9168 124.723 34.9214 122.217 34.9214Z" fill="white"/>
<path opacity="0.43" d="M141.114 40.7512C138.608 40.7512 136.205 41.7467 134.433 43.5186C132.661 45.2906 131.665 47.6938 131.665 50.1997V56.4553C131.665 53.9494 132.661 51.5461 134.433 49.7742C136.205 48.0022 138.608 47.0068 141.114 47.0068C143.62 47.0068 146.023 48.0022 147.795 49.7742C149.567 51.5461 150.562 53.9494 150.562 56.4553V50.1997C150.562 47.6938 149.567 45.2906 147.795 43.5186C146.023 41.7467 143.62 40.7512 141.114 40.7512Z" fill="white"/>
<path d="M93.8694 49.4773C93.8694 44.259 89.6392 40.0288 84.4209 40.0288C79.2026 40.0288 74.9724 44.259 74.9724 49.4773V70.8954C74.9724 76.1137 79.2026 80.3439 84.4209 80.3439C89.6392 80.3439 93.8694 76.1137 93.8694 70.8954V49.4773Z" stroke="#020129" stroke-width="8" stroke-linecap="round" stroke-linejoin="round"/>
<path d="M112.766 45.1577C112.766 39.9395 108.536 35.7092 103.318 35.7092C98.0996 35.7092 93.8694 39.9395 93.8694 45.1577V70.8244C93.8694 76.0426 98.0996 80.2729 103.318 80.2729C108.536 80.2729 112.766 76.0426 112.766 70.8244V45.1577Z" stroke="#020129" stroke-width="8" stroke-linecap="round" stroke-linejoin="round"/>
<path d="M131.663 44.3699C131.663 39.1516 127.433 34.9214 122.215 34.9214C116.997 34.9214 112.766 39.1516 112.766 44.3699V70.8243C112.766 76.0426 116.997 80.2728 122.215 80.2728C127.433 80.2728 131.663 76.0426 131.663 70.8243V44.3699Z" stroke="#020129" stroke-width="8" stroke-linecap="round" stroke-linejoin="round"/>
<path d="M150.56 50.1973C150.56 44.979 146.33 40.7488 141.112 40.7488C135.894 40.7488 131.663 44.979 131.663 50.1973V69.4533C131.663 74.6716 135.894 78.9018 141.112 78.9018C146.33 78.9018 150.56 74.6716 150.56 69.4533V50.1973Z" stroke="#020129" stroke-width="8" stroke-linecap="round" stroke-linejoin="round"/>
<path d="M137.204 90.9607H120.914C118.408 90.9607 116.004 89.9652 114.232 88.1933C112.461 86.4214 111.465 84.0181 111.465 81.5122C111.465 79.0063 112.461 76.6031 114.232 74.8311C116.004 73.0592 118.408 72.0637 120.914 72.0637H141.114C143.62 72.0637 146.023 73.0592 147.795 74.8311C149.567 76.6031 150.562 79.0063 150.562 81.5122V90.9607H137.204Z" fill="#F9A991"/>
<path d="M120.913 85.2128C118.91 85.2126 116.958 84.5756 115.34 83.3938C113.723 82.212 112.522 80.5465 111.913 78.6379C111.489 79.964 111.364 81.3674 111.545 82.7477C111.886 85.0478 113.048 87.1466 114.817 88.6559C116.586 90.1653 118.841 90.9831 121.166 90.9581H139.836C139.836 89.4337 139.231 87.9717 138.153 86.8937C137.075 85.8158 135.613 85.2102 134.088 85.2102L120.913 85.2128Z" fill="#F98568"/>
<path opacity="0.43" d="M141.114 72.0637H120.914C119.437 72.0637 117.981 72.4098 116.662 73.0743C115.343 73.7387 114.198 74.7031 113.32 75.8899C112.441 77.0768 111.853 78.453 111.602 79.9083C111.351 81.3636 111.445 82.8574 111.876 84.2699C112.467 82.3336 113.664 80.6383 115.291 79.4337C116.918 78.2291 118.889 77.579 120.914 77.579H141.114C143.62 77.579 146.023 78.5745 147.795 80.3464C149.567 82.1184 150.562 84.5216 150.562 87.0275V81.5122C150.562 79.0063 149.567 76.6031 147.795 74.8311C146.023 73.0592 143.62 72.0637 141.114 72.0637Z" fill="white"/>
<path d="M137.204 90.9607H120.914C118.408 90.9607 116.004 89.9652 114.232 88.1933C112.461 86.4214 111.465 84.0181 111.465 81.5122V81.5122C111.465 79.0063 112.461 76.6031 114.232 74.8311C116.004 73.0592 118.408 72.0637 120.914 72.0637H141.114C143.62 72.0637 146.023 73.0592 147.795 74.8311C149.567 76.6031 150.562 79.0063 150.562 81.5122V90.9607" stroke="#020129" stroke-width="8" stroke-linecap="round" stroke-linejoin="round"/>
<path d="M118.86 78.6379H123.505C124.36 78.6426 125.181 78.3078 125.788 77.707C126.396 77.1063 126.74 76.2889 126.744 75.4346V75.4346" stroke="#0A002D" stroke-width="4.02196" stroke-linecap="round" stroke-linejoin="round"/>
<path d="M79.5356 191C100.997 198.839 124.539 198.839 146.001 191V147.85H79.5356V191Z" fill="#2561A1"/>
<path d="M79.5356 191C100.997 198.839 124.539 198.839 146.001 191V147.85H79.5356V191Z" fill="#2561A1"/>
<path d="M79.5356 191C100.997 198.839 124.539 198.839 146.001 191V147.85H79.5356V191Z" fill="#2561A1"/>
<path d="M79.5356 147.85V191C90.1805 194.902 101.431 196.892 112.768 196.879V147.85H79.5356Z" fill="#1C5393"/>
<path d="M145.999 147.85H79.5339V153.439H145.999V147.85Z" fill="#A4C7E2"/>
<path d="M79.5356 188.433C79.5367 189.193 79.7766 189.935 80.2216 190.552C80.6666 191.169 81.2942 191.631 82.0157 191.872C101.974 198.549 123.562 198.549 143.52 191.872C144.242 191.631 144.869 191.169 145.315 190.552C145.76 189.935 146 189.193 146.001 188.433V147.85H79.5356V188.433Z" stroke="#020129" stroke-width="8" stroke-linecap="round" stroke-linejoin="round"/>
<path d="M57.8329 92.7604C56.9579 92.7604 56.1187 92.4128 55.5 91.7941C54.8813 91.1754 54.5337 90.3362 54.5337 89.4612C54.5453 88.8874 54.3435 88.3297 53.9672 87.8963C53.591 87.4628 53.0672 87.1846 52.4974 87.1154C52.188 87.0876 51.8761 87.1246 51.5817 87.224C51.2873 87.3233 51.0169 87.4829 50.7875 87.6926C50.5582 87.9022 50.3751 88.1573 50.2498 88.4416C50.1245 88.7259 50.0597 89.0332 50.0597 89.3439V89.4606C50.0597 90.3356 49.7121 91.1747 49.0934 91.7934C48.4747 92.4121 47.6355 92.7597 46.7606 92.7597C46.1867 92.7481 45.629 92.95 45.1956 93.3263C44.7622 93.7025 44.4839 94.2263 44.4147 94.796C44.3869 95.1055 44.4239 95.4174 44.5233 95.7117C44.6227 96.0061 44.7822 96.2766 44.9919 96.5059C45.2015 96.7352 45.4566 96.9184 45.7409 97.0437C46.0253 97.169 46.3326 97.2337 46.6433 97.2338H46.7593C47.6342 97.2338 48.4734 97.5814 49.0921 98.2001C49.7108 98.8188 50.0584 99.6579 50.0584 100.533C50.0468 101.107 50.2488 101.665 50.6252 102.098C51.0015 102.532 51.5255 102.81 52.0954 102.879C52.4048 102.907 52.7166 102.87 53.011 102.77C53.3053 102.671 53.5757 102.511 53.805 102.302C54.0343 102.092 54.2174 101.837 54.3426 101.552C54.4678 101.268 54.5325 100.961 54.5324 100.65V100.534C54.5324 99.6592 54.88 98.8201 55.4987 98.2014C56.1174 97.5826 56.9566 97.2351 57.8316 97.2351H57.9482C58.2589 97.235 58.5661 97.1701 58.8503 97.0448C59.1346 96.9194 59.3896 96.7363 59.5992 96.507C59.8087 96.2777 59.9683 96.0072 60.0676 95.7129C60.1669 95.4186 60.2039 95.1068 60.1761 94.7974C60.1071 94.2279 59.8293 93.7043 59.3964 93.328C58.9635 92.9517 58.4064 92.7494 57.8329 92.7604Z" fill="white"/>
<path d="M111.59 19.8415C111.152 19.8415 110.732 19.6677 110.423 19.3582C110.113 19.0488 109.94 18.6292 109.94 18.1916C109.946 17.9047 109.845 17.6258 109.657 17.4091C109.469 17.1923 109.207 17.0532 108.922 17.0187C108.767 17.0047 108.611 17.0232 108.464 17.0729C108.317 17.1225 108.182 17.2023 108.067 17.3071C107.952 17.412 107.861 17.5396 107.798 17.6817C107.736 17.8239 107.703 17.9776 107.703 18.1329V18.1909C107.703 18.6285 107.529 19.0482 107.22 19.3576C106.911 19.667 106.491 19.8408 106.053 19.8408C105.767 19.835 105.488 19.9359 105.271 20.124C105.054 20.312 104.915 20.5738 104.88 20.8587C104.867 21.0134 104.885 21.1694 104.935 21.3166C104.984 21.4638 105.064 21.5991 105.169 21.7138C105.274 21.8285 105.401 21.9201 105.544 21.9828C105.686 22.0455 105.839 22.0778 105.995 22.0778H106.053C106.49 22.0778 106.91 22.2516 107.219 22.5609C107.529 22.8701 107.702 23.2896 107.703 23.7271C107.697 24.014 107.797 24.293 107.985 24.5098C108.174 24.7265 108.436 24.8656 108.72 24.9C108.875 24.914 109.031 24.8955 109.178 24.8458C109.326 24.7962 109.461 24.7164 109.575 24.6115C109.69 24.5067 109.782 24.3791 109.844 24.2369C109.907 24.0948 109.939 23.9411 109.939 23.7857V23.7277C109.939 23.2903 110.113 22.8708 110.422 22.5615C110.732 22.2522 111.151 22.0785 111.589 22.0785H111.647C111.802 22.0785 111.956 22.0461 112.098 21.9834C112.24 21.9208 112.368 21.8292 112.473 21.7145C112.578 21.5998 112.657 21.4645 112.707 21.3173C112.757 21.17 112.775 21.0141 112.761 20.8593C112.727 20.5747 112.588 20.3131 112.371 20.1251C112.155 19.937 111.876 19.836 111.59 19.8415Z" fill="white"/>
<path d="M69.8636 152.852C69.6141 152.852 69.3748 152.752 69.1983 152.576C69.0218 152.399 68.9227 152.16 68.9227 151.911C68.9258 151.747 68.8682 151.588 68.761 151.465C68.6537 151.341 68.5045 151.262 68.3421 151.242C68.2539 151.234 68.165 151.245 68.0811 151.273C67.9971 151.301 67.92 151.347 67.8546 151.407C67.7893 151.466 67.737 151.539 67.7012 151.62C67.6655 151.701 67.6469 151.789 67.6468 151.877V151.911C67.6469 152.034 67.6227 152.156 67.5754 152.271C67.5282 152.385 67.459 152.489 67.3717 152.576C67.2843 152.663 67.1807 152.733 67.0665 152.78C66.9524 152.827 66.8301 152.852 66.7065 152.852C66.5429 152.848 66.3839 152.906 66.2603 153.013C66.1368 153.12 66.0575 153.27 66.038 153.432C66.03 153.52 66.0405 153.609 66.0688 153.693C66.0971 153.777 66.1426 153.854 66.2024 153.92C66.2622 153.985 66.3349 154.037 66.416 154.073C66.4971 154.109 66.5847 154.127 66.6733 154.127H66.7065C66.8301 154.127 66.9524 154.152 67.0665 154.199C67.1807 154.246 67.2843 154.316 67.3717 154.403C67.459 154.49 67.5282 154.594 67.5754 154.708C67.6227 154.822 67.6469 154.945 67.6468 155.068C67.6437 155.232 67.7014 155.391 67.8088 155.514C67.9162 155.638 68.0656 155.717 68.2281 155.737C68.3163 155.745 68.4051 155.734 68.489 155.706C68.5729 155.677 68.65 155.632 68.7153 155.572C68.7807 155.512 68.8328 155.44 68.8685 155.359C68.9043 155.278 68.9227 155.19 68.9227 155.102V155.068C68.9227 154.945 68.947 154.822 68.9943 154.708C69.0416 154.594 69.1109 154.49 69.1983 154.403C69.2857 154.316 69.3894 154.246 69.5036 154.199C69.6177 154.152 69.7401 154.127 69.8636 154.127H69.8969C69.9855 154.127 70.073 154.109 70.1541 154.073C70.2351 154.037 70.3078 153.985 70.3676 153.92C70.4273 153.854 70.4728 153.777 70.5011 153.693C70.5295 153.609 70.5401 153.52 70.5322 153.432C70.5124 153.27 70.4331 153.121 70.3096 153.013C70.1861 152.906 70.0272 152.848 69.8636 152.852Z" fill="white"/>
<path d="M189.79 119.874C189.602 119.874 189.422 119.8 189.289 119.667C189.156 119.534 189.082 119.354 189.082 119.167C189.084 119.044 189.04 118.924 188.96 118.831C188.879 118.738 188.767 118.678 188.644 118.664C188.578 118.658 188.511 118.666 188.448 118.688C188.385 118.709 188.328 118.743 188.279 118.788C188.23 118.833 188.19 118.888 188.164 118.949C188.137 119.01 188.123 119.075 188.123 119.142V119.167C188.123 119.355 188.048 119.535 187.915 119.668C187.783 119.8 187.602 119.875 187.415 119.875C187.292 119.873 187.172 119.916 187.079 119.997C186.986 120.078 186.926 120.19 186.912 120.312C186.906 120.378 186.914 120.445 186.936 120.508C186.957 120.571 186.991 120.629 187.036 120.678C187.081 120.727 187.136 120.766 187.197 120.793C187.258 120.82 187.323 120.833 187.39 120.834H187.415C187.602 120.834 187.783 120.908 187.915 121.041C188.048 121.173 188.123 121.353 188.123 121.541C188.121 121.664 188.164 121.784 188.244 121.877C188.325 121.97 188.437 122.029 188.56 122.044C188.626 122.05 188.693 122.042 188.756 122.02C188.819 121.999 188.876 121.965 188.925 121.92C188.974 121.875 189.013 121.82 189.04 121.759C189.067 121.698 189.081 121.632 189.081 121.566V121.541C189.082 121.354 189.157 121.174 189.29 121.042C189.422 120.909 189.602 120.835 189.79 120.835H189.815C189.881 120.835 189.947 120.822 190.008 120.795C190.069 120.768 190.123 120.729 190.168 120.68C190.213 120.631 190.248 120.573 190.269 120.51C190.29 120.447 190.299 120.38 190.293 120.314C190.279 120.191 190.219 120.078 190.126 119.997C190.033 119.916 189.913 119.872 189.79 119.874Z" fill="white"/>
<path d="M178.829 89.4319C178.592 89.4319 178.357 89.3852 178.138 89.2944C177.919 89.2036 177.72 89.0705 177.552 88.9027C177.384 88.7349 177.251 88.5357 177.16 88.3165C177.069 88.0973 177.023 87.8623 177.023 87.625C177.029 87.3118 176.921 87.0071 176.717 86.7688C176.514 86.5305 176.23 86.3751 175.92 86.3322C175.749 86.3145 175.576 86.3329 175.412 86.3863C175.248 86.4397 175.098 86.5269 174.97 86.6422C174.842 86.7575 174.74 86.8983 174.67 87.0556C174.6 87.2129 174.563 87.3831 174.563 87.5553V87.6257C174.563 88.1048 174.373 88.5643 174.034 88.9031C173.696 89.242 173.236 89.4324 172.757 89.4326C172.444 89.4258 172.139 89.5344 171.9 89.7377C171.662 89.9409 171.506 90.2247 171.464 90.5351C171.446 90.7064 171.464 90.8794 171.518 91.043C171.571 91.2067 171.658 91.3573 171.774 91.4851C171.889 91.6129 172.03 91.7151 172.187 91.7851C172.344 91.855 172.515 91.8912 172.687 91.8912H172.757C173.236 91.8913 173.696 92.0818 174.034 92.4206C174.373 92.7595 174.563 93.219 174.563 93.6981C174.557 94.0113 174.665 94.3161 174.869 94.5546C175.072 94.793 175.356 94.9485 175.666 94.9916C175.837 95.0093 176.01 94.9908 176.174 94.9374C176.338 94.884 176.488 94.7969 176.616 94.6816C176.744 94.5663 176.846 94.4255 176.916 94.2682C176.986 94.1109 177.022 93.9406 177.023 93.7685V93.7033C177.023 93.2225 177.213 92.7613 177.553 92.4212C177.893 92.0812 178.354 91.89 178.835 91.8899H178.9C179.073 91.8899 179.243 91.8537 179.4 91.7838C179.557 91.7138 179.698 91.6116 179.814 91.4838C179.929 91.356 180.016 91.2054 180.069 91.0417C180.123 90.8781 180.141 90.7051 180.124 90.5338C180.081 90.2234 179.925 89.9397 179.686 89.7365C179.448 89.5334 179.143 89.425 178.829 89.4319Z" fill="white"/>
<g style="mix-blend-mode:overlay" opacity="0.59">
<g style="mix-blend-mode:overlay" opacity="0.59">
<path d="M74.737 115.141C74.5847 115.141 74.4339 115.111 74.2932 115.053C74.1525 114.995 74.0246 114.909 73.9169 114.802C73.8092 114.694 73.7237 114.566 73.6654 114.425C73.6071 114.285 73.5771 114.134 73.5771 113.982C73.5816 113.781 73.5119 113.585 73.3814 113.432C73.2509 113.279 73.0687 113.179 72.8695 113.151C72.7598 113.14 72.649 113.152 72.5441 113.186C72.4393 113.22 72.3427 113.276 72.2607 113.349C72.1787 113.423 72.113 113.513 72.0679 113.614C72.0228 113.714 71.9993 113.823 71.9989 113.933V113.979C71.999 114.131 71.9691 114.282 71.9108 114.423C71.8526 114.563 71.7672 114.691 71.6596 114.799C71.5519 114.907 71.4241 114.992 71.2834 115.05C71.1427 115.108 70.9919 115.138 70.8397 115.138C70.6386 115.134 70.443 115.204 70.2899 115.334C70.1369 115.465 70.0371 115.647 70.0095 115.846C69.9982 115.956 70.0101 116.067 70.0444 116.172C70.0787 116.277 70.1347 116.374 70.2087 116.456C70.2827 116.538 70.3731 116.603 70.474 116.648C70.575 116.693 70.6842 116.716 70.7947 116.716H70.8397C70.992 116.716 71.1428 116.746 71.2834 116.805C71.4241 116.863 71.552 116.948 71.6596 117.056C71.7673 117.164 71.8526 117.292 71.9109 117.433C71.9691 117.573 71.999 117.724 71.9989 117.876C71.9946 118.077 72.0644 118.273 72.1948 118.426C72.3253 118.579 72.5074 118.678 72.7066 118.706C72.8162 118.717 72.9271 118.706 73.0319 118.671C73.1368 118.637 73.2333 118.582 73.3153 118.508C73.3974 118.434 73.463 118.344 73.5081 118.244C73.5532 118.143 73.5767 118.034 73.5771 117.924V117.883C73.5771 117.574 73.6997 117.278 73.918 117.06C74.1363 116.842 74.4323 116.719 74.7409 116.719H74.782C74.8922 116.719 75.0012 116.695 75.1018 116.65C75.2024 116.605 75.2924 116.539 75.3661 116.457C75.4398 116.375 75.4954 116.279 75.5295 116.174C75.5636 116.069 75.5753 115.958 75.5639 115.848C75.5365 115.65 75.4372 115.468 75.2849 115.338C75.1325 115.207 74.9376 115.137 74.737 115.141Z" fill="#174268"/>
</g>
</g>
<g style="mix-blend-mode:overlay" opacity="0.59">
<g style="mix-blend-mode:overlay" opacity="0.59">
<path d="M187.859 145.837C187.551 145.837 187.256 145.715 187.038 145.498C186.821 145.28 186.699 144.985 186.699 144.678C186.703 144.477 186.634 144.281 186.503 144.128C186.373 143.975 186.191 143.875 185.992 143.847C185.882 143.836 185.771 143.848 185.666 143.882C185.562 143.916 185.465 143.972 185.383 144.045C185.301 144.119 185.235 144.209 185.19 144.31C185.145 144.41 185.122 144.519 185.121 144.629V144.674C185.121 144.982 184.999 145.277 184.781 145.494C184.564 145.712 184.269 145.834 183.961 145.834C183.76 145.83 183.565 145.899 183.412 146.03C183.259 146.16 183.159 146.342 183.132 146.541C183.12 146.651 183.132 146.762 183.166 146.867C183.2 146.971 183.256 147.068 183.329 147.15C183.403 147.232 183.493 147.298 183.594 147.343C183.694 147.388 183.803 147.411 183.914 147.412H183.959C184.266 147.412 184.561 147.534 184.779 147.751C184.996 147.969 185.118 148.264 185.118 148.572C185.114 148.773 185.184 148.968 185.314 149.121C185.445 149.274 185.627 149.374 185.826 149.401C185.936 149.413 186.047 149.401 186.151 149.367C186.256 149.333 186.353 149.277 186.435 149.203C186.517 149.13 186.582 149.04 186.627 148.939C186.672 148.838 186.696 148.729 186.696 148.619V148.578C186.696 148.27 186.819 147.974 187.037 147.755C187.255 147.537 187.551 147.414 187.86 147.414H187.901C188.011 147.414 188.121 147.391 188.222 147.346C188.323 147.301 188.413 147.236 188.487 147.154C188.561 147.072 188.617 146.975 188.651 146.87C188.685 146.765 188.697 146.654 188.686 146.544C188.658 146.345 188.559 146.164 188.406 146.034C188.254 145.904 188.059 145.834 187.859 145.837Z" fill="#174268"/>
</g>
</g>
<g style="mix-blend-mode:overlay" opacity="0.59">
<g style="mix-blend-mode:overlay" opacity="0.59">
<path d="M38.8568 132.547C38.3776 132.547 37.918 132.356 37.5791 132.018C37.2402 131.679 37.0499 131.219 37.0499 130.74C37.0566 130.427 36.9481 130.122 36.7448 129.883C36.5415 129.645 36.2577 129.489 35.9473 129.446C35.7761 129.429 35.6031 129.447 35.4394 129.501C35.2758 129.554 35.1252 129.641 34.9973 129.756C34.8695 129.872 34.7673 130.013 34.6974 130.17C34.6274 130.327 34.5913 130.497 34.5913 130.67V130.74C34.5911 131.219 34.4007 131.679 34.0619 132.017C33.723 132.356 33.2635 132.547 32.7844 132.547C32.4711 132.54 32.1663 132.649 31.9279 132.852C31.6894 133.055 31.5339 133.339 31.4909 133.649C31.4732 133.821 31.4916 133.994 31.545 134.157C31.5985 134.321 31.6856 134.472 31.8009 134.599C31.9162 134.727 32.0571 134.829 32.2143 134.899C32.3716 134.969 32.5418 135.005 32.714 135.005H32.7844C33.2635 135.006 33.723 135.196 34.0619 135.535C34.4007 135.874 34.5911 136.333 34.5913 136.812C34.5847 137.126 34.6933 137.43 34.8965 137.669C35.0998 137.907 35.3835 138.063 35.6938 138.106C35.8651 138.124 36.0381 138.105 36.2017 138.052C36.3654 137.998 36.516 137.911 36.6438 137.796C36.7716 137.681 36.8738 137.54 36.9438 137.382C37.0137 137.225 37.0499 137.055 37.0499 136.883V136.818C37.0499 136.337 37.2409 135.875 37.581 135.535C37.9211 135.195 38.3824 135.004 38.8633 135.004H38.9285C39.1006 135.004 39.2708 134.968 39.428 134.898C39.5853 134.828 39.7261 134.726 39.8414 134.598C39.9566 134.47 40.0437 134.32 40.097 134.156C40.1504 133.992 40.1687 133.819 40.1509 133.648C40.1078 133.338 39.9522 133.054 39.7136 132.851C39.475 132.648 39.17 132.54 38.8568 132.547Z" fill="#174268"/>
</g>
</g>
<path d="M164.655 125.739C164.085 125.738 163.539 125.511 163.137 125.108C162.734 124.705 162.508 124.158 162.508 123.589C162.516 123.216 162.387 122.854 162.146 122.571C161.904 122.287 161.567 122.103 161.198 122.052C160.995 122.031 160.789 122.053 160.595 122.116C160.4 122.179 160.221 122.283 160.069 122.42C159.917 122.557 159.796 122.724 159.713 122.911C159.63 123.098 159.587 123.301 159.587 123.505V123.589C159.587 123.871 159.531 124.151 159.423 124.411C159.315 124.672 159.157 124.909 158.957 125.109C158.757 125.309 158.52 125.467 158.259 125.575C157.998 125.683 157.719 125.739 157.436 125.739C157.064 125.731 156.702 125.86 156.419 126.102C156.136 126.343 155.951 126.68 155.9 127.049C155.879 127.252 155.901 127.458 155.964 127.652C156.028 127.847 156.131 128.026 156.268 128.178C156.405 128.329 156.572 128.451 156.759 128.534C156.946 128.617 157.148 128.66 157.353 128.66H157.436C158.007 128.66 158.554 128.887 158.957 129.29C159.36 129.693 159.587 130.24 159.587 130.81C159.579 131.183 159.708 131.545 159.949 131.828C160.191 132.111 160.528 132.296 160.897 132.347C161.1 132.368 161.306 132.346 161.5 132.283C161.694 132.219 161.873 132.116 162.025 131.979C162.177 131.842 162.299 131.674 162.382 131.488C162.465 131.301 162.508 131.098 162.508 130.894V130.818C162.508 130.247 162.735 129.699 163.139 129.295C163.543 128.891 164.091 128.664 164.663 128.663H164.738C164.943 128.663 165.145 128.62 165.332 128.537C165.519 128.454 165.686 128.333 165.823 128.181C165.96 128.029 166.064 127.85 166.127 127.655C166.191 127.461 166.213 127.255 166.192 127.052C166.141 126.683 165.957 126.345 165.674 126.103C165.39 125.86 165.028 125.731 164.655 125.739Z" fill="white"/>
</svg>
